<svg id="Layer_1" xmlns="http://www.w3.org/2000/svg" viewBox="0 0 233.2 45.9"><style>.st0{fill:#fff}</style><path class="st0" d="M35 4.2H3.1C1.6 4.2.3 5.5.3 7v29.7c0 1.5 1.2 2.7 2.8 2.7H35c1.5 0 2.8-1.2 2.8-2.7V7c0-1.5-1.2-2.8-2.8-2.8zm.3 30.4c0 1.3-1.1 2.4-2.4 2.4H5c-1.3 0-2.4-1.1-2.4-2.4v-26c0-1.3 1.1-2.4 2.4-2.4h27.9c1.3 0 2.4 1.1 2.4 2.4v26z"/><path class="st0" d="M19.1 9.9c-6.6 0-12 5.3-12 11.8 0 6.5 5.4 11.8 12 11.8s12-5.3 12-11.8c-.1-6.5-5.4-11.8-12-11.8zm.1 22c-5.7 0-10.3-4.5-10.3-10.2 0-5.6 4.6-10.2 10.3-10.2 5.7 0 10.3 4.5 10.3 10.2-.1 5.7-4.7 10.2-10.3 10.2zM47.1 18.9V34h-1.7V18.9h-2.3v-1.7h2.3V9.9h1.7v7.3h4v1.7h-4zM63.8 19.7c-.4-.3-.9-.6-1.4-.8-.5-.2-1-.3-1.6-.3-.5 0-.9.1-1.3.4-.4.3-.8.6-1.1 1.1-.3.4-.5.9-.7 1.4-.2.5-.3 1-.3 1.4v11h-1.7V17.2h1.7v2.3c.4-.6.8-1.2 1.4-1.7.6-.5 1.2-.8 1.9-.8.9 0 1.6.1 2.1.3.6.2 1.2.5 1.9 1l-.9 1.4zM80.3 32.5c-1.1 1.2-2.7 1.8-4.8 1.8-2 0-3.6-.6-4.7-1.7-1.1-1.2-1.7-2.8-1.7-4.9V17.2h1.7v10.5c0 1.6.4 2.8 1.1 3.7.7.9 1.9 1.3 3.6 1.3 3.2 0 4.8-1.7 4.8-5V17.2H82v10.5c0 2-.6 3.6-1.7 4.8zM96.5 32.9c-1.1.9-2.4 1.4-4 1.4-2.7 0-4.6-1.2-6-3.5l1.5-.9c.5.8 1 1.5 1.7 1.9.7.5 1.6.8 2.8.8 2.6 0 3.9-1.1 3.9-3.2 0-.9-.5-1.8-1.4-2.5-.3-.2-.7-.3-1.2-.5s-1.1-.4-1.9-.7c-1.4-.5-2.4-1-3-1.5-.9-.7-1.3-1.7-1.3-3 0-1.1.4-2.1 1.3-2.9.9-.8 2-1.3 3.4-1.3 1.9 0 3.5.6 4.9 1.9L95.9 20c-.9-.9-2.1-1.4-3.6-1.4-2 0-3 .9-3 2.6 0 .8.3 1.4.9 1.9.5.4 1.3.7 2.4 1.1.9.3 1.7.6 2.3.9.6.3 1.1.5 1.4.8 1.2.9 1.8 2.1 1.8 3.6 0 1.3-.6 2.5-1.6 3.4zM105.2 18.9V34h-1.7V18.9h-2.3v-1.7h2.3V9.9h1.7v7.3h4v1.7h-4zM114.1 25.2c0 2.3.6 4.1 1.9 5.4 1.3 1.4 3.1 2 5.3 2 1.2 0 2.2-.2 3.2-.6 1.2-.5 2.3-1.5 3.2-3l1.5.7c-1.1 2-2.7 3.4-5 4.1-.9.3-1.8.4-2.9.4-2.6 0-4.7-.8-6.3-2.5-1.7-1.6-2.5-3.7-2.5-6.2s.8-4.6 2.5-6.2c1.7-1.6 3.8-2.5 6.4-2.5 2.5 0 4.6.8 6.3 2.3 1.7 1.5 2.5 3.5 2.5 6h-16.1zm11.7-5.3c-1.3-.9-2.8-1.4-4.5-1.4-3.5 0-5.9 1.7-7 5.1h13.9c-.2-1.5-1-2.7-2.4-3.7zM149.8 34v-3c-1.8 2.2-4.1 3.3-7 3.3-2.5 0-4.6-.8-6.3-2.5-1.7-1.7-2.6-3.7-2.6-6.2 0-2.4.8-4.5 2.5-6.1 1.7-1.7 3.8-2.5 6.3-2.5 2.7 0 5.1 1.1 7 3.3V3.9h1.7v30h-1.6zm-1.9-13.4c-1.4-1.4-3.1-2.1-5.1-2.1-2 0-3.7.7-5.1 2-1.4 1.4-2.1 3-2.1 5 0 1.9.7 3.6 2.1 4.9 1.4 1.4 3.1 2.1 5.1 2.1 2 0 3.7-.7 5.1-2 1.4-1.4 2.1-3 2.1-5 0-1.8-.7-3.5-2.1-4.9zM156.7 34.2c-.3 0-.6-.1-1-.4-.2-.2-.4-.6-.4-1 0-.7.5-1.2 1.4-1.3.7 0 1.1.4 1.4 1.3 0 1-.4 1.4-1.4 1.4zM171 34.3c-2.5 0-4.7-.8-6.3-2.5-1.7-1.6-2.5-3.7-2.5-6.2s.8-4.6 2.5-6.2c1.7-1.6 3.8-2.5 6.3-2.5 2.2 0 3.9.5 5.2 1.5v2l-1.1-.7-1.2-.6c-1.1-.4-2-.5-3-.5-2.1 0-3.9.6-5.2 1.9-1.4 1.3-2 3-2 5.1 0 2.1.7 3.7 2 5.1 1.4 1.3 3.1 2 5.2 2 2 0 3.7-.6 5.2-1.9v2.1c-1.5.9-3.2 1.4-5.1 1.4zM193.2 31.7c-1.7 1.7-3.8 2.5-6.3 2.5s-4.6-.8-6.3-2.5c-1.7-1.7-2.6-3.7-2.6-6.2 0-2.4.9-4.4 2.6-6.1 1.7-1.7 3.8-2.6 6.3-2.6s4.5.8 6.3 2.5c1.7 1.7 2.6 3.7 2.6 6.2-.1 2.5-1 4.6-2.6 6.2zm-1.3-11.1c-1.4-1.4-3.1-2.1-5.1-2.1-1.9 0-3.6.7-5 2.1-1.4 1.4-2.2 3.1-2.2 4.9 0 1.9.7 3.6 2.1 4.9 1.4 1.4 3.1 2.1 5.1 2.1 2 0 3.7-.7 5.1-2 1.4-1.4 2.1-3 2.1-5 0-1.9-.7-3.5-2.1-4.9zM220.3 34V22.4c0-1-.3-1.9-1-2.7-.7-.8-1.7-1.1-3-1.1-2.7 0-4 1.3-4 3.8V34h-1.7V22.4c0-1.1-.4-2-1.2-2.7-.8-.7-1.8-1.1-2.9-1.1-1.1 0-2.1.4-2.9 1.1-.8.7-1.2 1.6-1.2 2.8V34h-1.7V17.2h1.7v1.7c.8-1.3 2.2-1.9 4-1.9 2.2 0 3.8.9 4.9 2.6 1-1.8 2.6-2.6 4.9-2.6 1.7 0 3.1.5 4.1 1.4 1 1 1.6 2.3 1.6 4V34h-1.6z"/><g><path class="st0" d="M26.3 22.5H20v6.3h-1.8v-6.3h-6.3v-1.8h6.3v-6.3H20v6.3h6.3v1.8z"/></g><g><path class="st0" d="M224.2 17.1v-3.3H223v-.4h2.9v.4h-1.2v3.3h-.5zM226.4 17.1v-3.7h.7l.9 2.6c.1.2.1.4.2.5 0-.1.1-.3.2-.6l.9-2.6h.7V17h-.5v-3l-1.1 3.1h-.4l-1.1-3.1v3.1h-.5z"/></g></svg>