<?xml version="1.0" encoding="UTF-8"?>

<svg
   xmlns="http://www.w3.org/2000/svg" width="500" height="47.3">
  <path d="m 5,5 c 0.35137,1.27214 0.71952,2.44065 0.71952,4.7489 l 0,27.62996 c 0,2.31976 -0.36839,3.58613 -0.71952,4.8928 l 12.37592,0 C 17.03054,40.96499 16.6564,39.69862 16.6564,37.37886 l 0,-11.51249 8.05874,0 6.33185,16.40529 12.37592,0 c -1.5657,-1.59447 -2.18162,-3.09685 -2.87812,-4.8928 L 36.0837,26.01028 c 3.88548,-0.52382 5.75625,-2.59607 5.75625,-6.18796 l 0,-7.91483 C 41.83995,7.84935 39.51442,5 34.64465,5 L 5,5 z m 44.32305,0 c 0.34539,1.27788 0.57564,2.57304 0.57564,4.8928 l 0,27.48606 c 0,2.32553 -0.23025,3.58613 -0.57564,4.8928 l 12.23202,0 c -0.35137,-1.30667 -0.71953,-2.56727 -0.71953,-4.8928 l 0,-27.48606 c 0,-2.31976 0.36839,-3.61492 0.71953,-4.8928 L 49.32305,5 z m 26.91042,0 c -4.97914,0 -7.19528,2.81481 -7.19528,7.33922 l 0,22.59323 c 0,4.52441 2.21614,7.33921 7.19528,7.33921 l 21.72982,0 0.86343,-5.61235 c -1.45056,0.58141 -2.86083,0.86346 -5.18062,0.86346 l -11.80028,0 c -1.22034,0 -2.01469,-0.50081 -2.01469,-2.01469 l 0,-23.7445 c 0,-1.5139 0.79435,-2.01468 2.01469,-2.01468 l 11.80028,0 c 2.31979,0 3.73006,0.28183 5.18062,0.86343 L 97.96329,5 76.23347,5 z m 29.21294,0 c 0.35135,1.27788 0.71953,2.57304 0.71953,4.8928 l 0,27.48606 c 0,2.31976 -0.36842,3.58613 -0.71953,4.8928 l 12.3759,0 c -0.35134,-1.30667 -0.71952,-2.57304 -0.71952,-4.8928 l 0,-11.51249 14.6784,0 0,11.51249 c 0,2.31976 -0.36839,3.58613 -0.71952,4.8928 l 12.23201,0 c -0.34536,-1.30667 -0.71952,-2.57304 -0.71952,-4.8928 l 0,-27.48606 c 0,-2.31976 0.37437,-3.61492 0.71952,-4.8928 l -12.23201,0 c 0.35137,1.27788 0.71952,2.57304 0.71952,4.8928 l 0,11.22468 -14.6784,0 0,-11.22468 c 0,-2.31976 0.36839,-3.61492 0.71952,-4.8928 l -12.3759,0 z m 57.99412,0 1.58297,2.44639 -13.38326,29.93247 c -0.57564,1.32968 -1.77869,3.29833 -2.87812,4.8928 l 7.19528,0 c 0,-1.82472 0.39743,-3.79337 0.86346,-4.8928 l 2.44639,-5.75626 16.83702,0 2.5903,5.75626 c 0.63895,1.44481 1.00734,2.95294 1.00734,3.88546 0,0.3569 -0.0276,0.65046 -0.14362,1.00734 l 13.67109,0 c -1.04189,-0.94977 -2.06651,-3.15442 -2.87812,-4.8928 L 175.67284,5 163.44082,5 z m 35.25697,0 c 0.35137,1.27214 0.71952,2.44065 0.71952,4.7489 l 0,27.62996 c 0,2.31976 -0.36839,3.58613 -0.71952,4.8928 l 12.23201,0 c -0.34536,-1.30667 -0.71952,-2.57304 -0.71952,-4.8928 l 0,-11.51249 8.20264,0 6.33185,16.40529 12.37593,0 c -1.5657,-1.59447 -2.1816,-3.09685 -2.87812,-4.8928 l -4.60501,-11.36858 c 3.88548,-0.52382 5.75626,-2.59607 5.75626,-6.18796 l 0,-7.91483 C 235.39354,7.84935 233.06801,5 228.19824,5 L 198.6975,5 z m 44.17916,0 c 0.34537,1.25486 0.71953,2.46942 0.71953,4.7489 l 0,27.77387 c 0,2.30825 -0.3744,3.48252 -0.71953,4.74889 l 30.22026,0 c 4.97915,0 7.19531,-2.80906 7.19531,-7.33921 l 0,-22.59323 C 280.29223,7.83207 278.07607,5 273.09692,5 l -30.22026,0 z m 67.49192,0 c 0.34537,1.27788 0.71953,2.57304 0.71953,4.8928 l 0,27.48606 c 0,2.32553 -0.37438,3.58613 -0.71953,4.8928 l 6.47576,0 c -0.34537,-1.30667 -0.71952,-2.56727 -0.71952,-4.8928 l 0,-26.91044 0.14362,0 12.51983,31.80324 7.4831,0 12.66374,-31.80324 0.14362,0 0,26.91044 c 0,2.32553 -0.37439,3.58613 -0.71952,4.8928 l 11.9442,0 c -0.34539,-1.30667 -0.71953,-2.56727 -0.71953,-4.8928 l 0,-27.48606 c 0,-2.31976 0.37438,-3.61492 0.71953,-4.8928 L 346.48841,5 335.69547,32.05433 325.04643,5 310.36801,5 z m 58.71366,0 c 0.34536,1.27788 0.71952,2.57304 0.71952,4.8928 l 0,27.48606 c 0,2.32553 -0.37439,3.58613 -0.71952,4.8928 l 12.23199,0 c -0.35135,-1.30667 -0.71952,-2.56727 -0.71952,-4.8928 l 0,-27.48606 c 0,-2.31976 0.36841,-3.61492 0.71952,-4.8928 l -12.23199,0 z m 21.01027,0 c 0.35135,1.27788 0.71953,2.5673 0.71953,4.8928 l 0,27.62997 c 0,2.31399 -0.36839,3.47676 -0.71953,4.74889 l 30.50806,0 0.86346,-5.61235 c -1.39302,0.52384 -2.97597,0.86346 -5.46844,0.86346 l -14.2467,0 0,-27.62997 c 0,-2.3255 0.36839,-3.61492 0.71955,-4.8928 l -12.37593,0 z m 36.83993,0 c 0.35137,1.27788 0.71955,2.5673 0.71955,4.8928 l 0,27.62997 c 0,2.31399 -0.36841,3.47676 -0.71955,4.74889 l 30.36418,0 1.00734,-5.61235 c -1.39302,0.52384 -2.97597,0.86346 -5.46842,0.86346 l -14.39061,0 0,-27.62997 c 0,-2.3255 0.3684,-3.61492 0.71953,-4.8928 l -12.23202,0 z m 36.83996,0 c 0.35134,1.26637 0.57561,2.44065 0.57561,4.7489 l 0,27.77387 c 0,2.31399 -0.22427,3.47676 -0.57561,4.74889 l 30.36417,0 L 495,36.65931 c -1.39301,0.52959 -2.83206,0.86346 -5.32453,0.86346 l -14.39061,0 0,-11.6564 12.80765,0 c 2.03195,0 3.90272,0.33387 5.18062,0.86343 l 0,-6.47576 c -1.2779,0.51805 -3.14867,0.86344 -5.18062,0.86344 l -12.80765,0 0,-11.36858 14.39061,0 c 2.49247,0 3.93152,0.33985 5.32453,0.86343 L 494.13657,5 463.7724,5 z m -447.116,4.7489 12.51981,0 c 1.50813,0 2.01468,0.81737 2.01468,2.44641 l 0,6.33187 c 0,1.74412 -0.44898,2.5903 -2.01468,2.5903 l -12.51981,0 0,-11.36858 z m 193.55359,0 12.66372,0 c 1.50815,0 2.01468,0.81737 2.01468,2.44641 l 0,6.33187 c 0,1.74412 -0.44896,2.5903 -2.01468,2.5903 l -12.66372,0 0,-11.36858 z m 44.17914,0 13.09545,0 c 1.22033,0 2.01468,0.49504 2.01468,2.01468 l 0,23.7445 c 0,1.51965 -0.79435,2.01469 -2.01468,2.01469 l -13.09545,0 0,-27.77387 z m -86.77533,3.16593 6.33187,13.95888 -12.51983,0 6.18796,-13.95888 z" style="fill:#000;" />
</svg>
