<?xml version="1.0" encoding="utf-8"?>
<!-- Generator: Adobe Illustrator 19.2.0, SVG Export Plug-In . SVG Version: 6.00 Build 0)  -->
<svg version="1.1" id="Layer_1" xmlns="http://www.w3.org/2000/svg" xmlns:xlink="http://www.w3.org/1999/xlink" x="0px" y="0px"
	 viewBox="0 0 233.2 45.9" style="enable-background:new 0 0 233.2 45.9;" xml:space="preserve">
<style type="text/css">
	.st0{fill:#FFFFFF;}
</style>
<g>
	<g>
		<path class="st0" d="M35,4.2H3.1C1.6,4.2,0.3,5.5,0.3,7v29.7c0,1.5,1.2,2.7,2.8,2.7H35c1.5,0,2.8-1.2,2.8-2.7V7
			C37.8,5.5,36.6,4.2,35,4.2z M35.3,34.6c0,1.3-1.1,2.4-2.4,2.4H5c-1.3,0-2.4-1.1-2.4-2.4v-26c0-1.3,1.1-2.4,2.4-2.4h27.9
			c1.3,0,2.4,1.1,2.4,2.4V34.6z"/>
	</g>
</g>
<g>
	<g>
		<path class="st0" d="M19.1,9.9c-6.6,0-12,5.3-12,11.8c0,6.5,5.4,11.8,12,11.8c6.6,0,12-5.3,12-11.8C31,15.2,25.7,9.9,19.1,9.9z
			 M19.2,31.9c-5.7,0-10.3-4.5-10.3-10.2c0-5.6,4.6-10.2,10.3-10.2c5.7,0,10.3,4.5,10.3,10.2C29.4,27.4,24.8,31.9,19.2,31.9z"/>
	</g>
</g>
<g>
	<path class="st0" d="M47.1,18.9V34h-1.7V18.9h-2.3v-1.7h2.3V9.9h1.7v7.3h4v1.7H47.1z"/>
	<path class="st0" d="M63.8,19.7c-0.4-0.3-0.9-0.6-1.4-0.8c-0.5-0.2-1-0.3-1.6-0.3c-0.5,0-0.9,0.1-1.3,0.4c-0.4,0.3-0.8,0.6-1.1,1.1
		c-0.3,0.4-0.5,0.9-0.7,1.4c-0.2,0.5-0.3,1-0.3,1.4v11h-1.7V17.2h1.7v2.3c0.4-0.6,0.8-1.2,1.4-1.7c0.6-0.5,1.2-0.8,1.9-0.8
		c0.9,0,1.6,0.1,2.1,0.3c0.6,0.2,1.2,0.5,1.9,1L63.8,19.7z"/>
	<path class="st0" d="M80.3,32.5c-1.1,1.2-2.7,1.8-4.8,1.8c-2,0-3.6-0.6-4.7-1.7c-1.1-1.2-1.7-2.8-1.7-4.9V17.2h1.7v10.5
		c0,1.6,0.4,2.8,1.1,3.7c0.7,0.9,1.9,1.3,3.6,1.3c3.2,0,4.8-1.7,4.8-5V17.2H82v10.5C82,29.7,81.4,31.3,80.3,32.5z"/>
	<path class="st0" d="M96.5,32.9c-1.1,0.9-2.4,1.4-4,1.4c-2.7,0-4.6-1.2-6-3.5l1.5-0.9c0.5,0.8,1,1.5,1.7,1.9
		c0.7,0.5,1.6,0.8,2.8,0.8c2.6,0,3.9-1.1,3.9-3.2c0-0.9-0.5-1.8-1.4-2.5c-0.3-0.2-0.7-0.3-1.2-0.5c-0.5-0.2-1.1-0.4-1.9-0.7
		c-1.4-0.5-2.4-1-3-1.5c-0.9-0.7-1.3-1.7-1.3-3c0-1.1,0.4-2.1,1.3-2.9c0.9-0.8,2-1.3,3.4-1.3c1.9,0,3.5,0.6,4.9,1.9L95.9,20
		c-0.9-0.9-2.1-1.4-3.6-1.4c-2,0-3,0.9-3,2.6c0,0.8,0.3,1.4,0.9,1.9c0.5,0.4,1.3,0.7,2.4,1.1c0.9,0.3,1.7,0.6,2.3,0.9
		c0.6,0.3,1.1,0.5,1.4,0.8c1.2,0.9,1.8,2.1,1.8,3.6C98.1,30.8,97.5,32,96.5,32.9z"/>
	<path class="st0" d="M105.2,18.9V34h-1.7V18.9h-2.3v-1.7h2.3V9.9h1.7v7.3h4v1.7H105.2z"/>
	<path class="st0" d="M114.1,25.2c0,2.3,0.6,4.1,1.9,5.4c1.3,1.4,3.1,2,5.3,2c1.2,0,2.2-0.2,3.2-0.6c1.2-0.5,2.3-1.5,3.2-3l1.5,0.7
		c-1.1,2-2.7,3.4-5,4.1c-0.9,0.3-1.8,0.4-2.9,0.4c-2.6,0-4.7-0.8-6.3-2.5c-1.7-1.6-2.5-3.7-2.5-6.2c0-2.5,0.8-4.6,2.5-6.2
		c1.7-1.6,3.8-2.5,6.4-2.5c2.5,0,4.6,0.8,6.3,2.3c1.7,1.5,2.5,3.5,2.5,6H114.1z M125.8,19.9c-1.3-0.9-2.8-1.4-4.5-1.4
		c-3.5,0-5.9,1.7-7,5.1h13.9C128,22.1,127.2,20.9,125.8,19.9z"/>
	<path class="st0" d="M149.8,34v-3c-1.8,2.2-4.1,3.3-7,3.3c-2.5,0-4.6-0.8-6.3-2.5c-1.7-1.7-2.6-3.7-2.6-6.2c0-2.4,0.8-4.5,2.5-6.1
		c1.7-1.7,3.8-2.5,6.3-2.5c2.7,0,5.1,1.1,7,3.3V3.9h1.7v30H149.8z M147.9,20.6c-1.4-1.4-3.1-2.1-5.1-2.1c-2,0-3.7,0.7-5.1,2
		c-1.4,1.4-2.1,3-2.1,5c0,1.9,0.7,3.6,2.1,4.9c1.4,1.4,3.1,2.1,5.1,2.1c2,0,3.7-0.7,5.1-2c1.4-1.4,2.1-3,2.1-5
		C150,23.7,149.3,22,147.9,20.6z"/>
	<path class="st0" d="M156.7,34.2c-0.3,0-0.6-0.1-1-0.4c-0.2-0.2-0.4-0.6-0.4-1c0-0.7,0.5-1.2,1.4-1.3c0.7,0,1.1,0.4,1.4,1.3
		C158.1,33.8,157.7,34.2,156.7,34.2z"/>
	<path class="st0" d="M171,34.3c-2.5,0-4.7-0.8-6.3-2.5c-1.7-1.6-2.5-3.7-2.5-6.2s0.8-4.6,2.5-6.2c1.7-1.6,3.8-2.5,6.3-2.5
		c2.2,0,3.9,0.5,5.2,1.5v2l-1.1-0.7l-1.2-0.6c-1.1-0.4-2-0.5-3-0.5c-2.1,0-3.9,0.6-5.2,1.9c-1.4,1.3-2,3-2,5.1c0,2.1,0.7,3.7,2,5.1
		c1.4,1.3,3.1,2,5.2,2c2,0,3.7-0.6,5.2-1.9v2.1C174.6,33.8,172.9,34.3,171,34.3z"/>
	<path class="st0" d="M193.2,31.7c-1.7,1.7-3.8,2.5-6.3,2.5c-2.5,0-4.6-0.8-6.3-2.5c-1.7-1.7-2.6-3.7-2.6-6.2c0-2.4,0.9-4.4,2.6-6.1
		c1.7-1.7,3.8-2.6,6.3-2.6c2.5,0,4.5,0.8,6.3,2.5c1.7,1.7,2.6,3.7,2.6,6.2C195.7,28,194.8,30.1,193.2,31.7z M191.9,20.6
		c-1.4-1.4-3.1-2.1-5.1-2.1c-1.9,0-3.6,0.7-5,2.1c-1.4,1.4-2.2,3.1-2.2,4.9c0,1.9,0.7,3.6,2.1,4.9c1.4,1.4,3.1,2.1,5.1,2.1
		c2,0,3.7-0.7,5.1-2c1.4-1.4,2.1-3,2.1-5C194,23.6,193.3,22,191.9,20.6z"/>
	<path class="st0" d="M220.3,34V22.4c0-1-0.3-1.9-1-2.7c-0.7-0.8-1.7-1.1-3-1.1c-2.7,0-4,1.3-4,3.8V34h-1.7V22.4
		c0-1.1-0.4-2-1.2-2.7c-0.8-0.7-1.8-1.1-2.9-1.1c-1.1,0-2.1,0.4-2.9,1.1c-0.8,0.7-1.2,1.6-1.2,2.8V34h-1.7V17.2h1.7v1.7
		c0.8-1.3,2.2-1.9,4-1.9c2.2,0,3.8,0.9,4.9,2.6c1-1.8,2.6-2.6,4.9-2.6c1.7,0,3.1,0.5,4.1,1.4c1,1,1.6,2.3,1.6,4V34H220.3z"/>
</g>
<g>
	<path class="st0" d="M26.3,22.5H20v6.3h-1.8v-6.3h-6.3v-1.8h6.3v-6.3H20v6.3h6.3V22.5z"/>
</g>
<g>
	<path class="st0" d="M224.2,17.1v-3.3h-1.2v-0.4h2.9v0.4h-1.2v3.3H224.2z"/>
	<path class="st0" d="M226.4,17.1v-3.7h0.7l0.9,2.6c0.1,0.2,0.1,0.4,0.2,0.5c0-0.1,0.1-0.3,0.2-0.6l0.9-2.6h0.7v3.7h-0.5V14
		l-1.1,3.1h-0.4l-1.1-3.1v3.1H226.4z"/>
</g>
</svg>
