<?xml version="1.0" encoding="utf-8"?>
<!-- Generator: Adobe Illustrator 19.2.0, SVG Export Plug-In . SVG Version: 6.00 Build 0)  -->
<svg version="1.1" id="Layer_1" xmlns="http://www.w3.org/2000/svg" xmlns:xlink="http://www.w3.org/1999/xlink" x="0px" y="0px"
	 viewBox="0 0 200.3 32.6" style="enable-background:new 0 0 200.3 32.6;" xml:space="preserve">
<style type="text/css">
	.st0{fill:#FFFFFF;}
</style>
<g>
	<g>
		<path class="st0" d="M30.6,1.2H2.7c-1.3,0-2.4,1.1-2.4,2.4v25.9c0,1.3,1.1,2.4,2.4,2.4h27.8c1.3,0,2.4-1.1,2.4-2.4V3.6
			C33,2.3,31.9,1.2,30.6,1.2z M30.8,27.7c0,1.2-0.9,2.1-2.1,2.1H4.4c-1.2,0-2.1-0.9-2.1-2.1V5.1C2.3,3.9,3.2,3,4.4,3h24.3
			c1.2,0,2.1,0.9,2.1,2.1V27.7z"/>
	</g>
</g>
<g>
	<g>
		<path class="st0" d="M16.7,6.2c-5.8,0-10.4,4.6-10.4,10.3c0,5.7,4.7,10.3,10.4,10.3c5.8,0,10.4-4.6,10.4-10.3
			C27.1,10.8,22.4,6.2,16.7,6.2z M16.7,25.4c-4.9,0-9-4-9-8.8c0-4.9,4-8.8,9-8.8c4.9,0,9,4,9,8.8C25.7,21.4,21.7,25.4,16.7,25.4z"/>
	</g>
</g>
<g>
	<path class="st0" d="M41.1,14v13.1h-1.5V14h-2v-1.4h2V6.2h1.5v6.4h3.5V14H41.1z"/>
	<path class="st0" d="M55.6,14.7c-0.4-0.3-0.8-0.5-1.2-0.7c-0.4-0.2-0.9-0.2-1.4-0.2c-0.4,0-0.8,0.1-1.2,0.4
		c-0.4,0.2-0.7,0.6-0.9,0.9c-0.3,0.4-0.5,0.8-0.6,1.2c-0.2,0.4-0.2,0.9-0.2,1.2v9.6h-1.5V12.5h1.5v2c0.3-0.5,0.7-1,1.2-1.5
		s1.1-0.7,1.7-0.7c0.7,0,1.4,0.1,1.8,0.2c0.5,0.2,1,0.5,1.6,0.9L55.6,14.7z"/>
	<path class="st0" d="M70,25.9c-1,1-2.4,1.6-4.2,1.6c-1.8,0-3.1-0.5-4.1-1.5c-1-1-1.4-2.4-1.4-4.2v-9.1h1.5v9.1
		c0,1.4,0.3,2.5,0.9,3.2c0.6,0.8,1.7,1.1,3.1,1.1c2.8,0,4.2-1.4,4.2-4.3v-9.1h1.4v9.1C71.5,23.5,71,24.9,70,25.9z"/>
	<path class="st0" d="M84.1,26.2c-1,0.8-2.1,1.2-3.5,1.2c-2.3,0-4-1-5.2-3.1l1.3-0.7c0.4,0.7,0.9,1.3,1.5,1.7
		c0.6,0.4,1.4,0.7,2.5,0.7c2.3,0,3.4-0.9,3.4-2.8c0-0.8-0.4-1.5-1.2-2.2c-0.2-0.1-0.6-0.3-1-0.5c-0.4-0.2-1-0.4-1.6-0.6
		c-1.2-0.4-2.1-0.8-2.6-1.3c-0.8-0.6-1.2-1.5-1.2-2.6c0-1,0.4-1.8,1.2-2.5c0.7-0.7,1.7-1.1,2.9-1.1c1.7,0,3.1,0.6,4.2,1.7L83.6,15
		c-0.8-0.8-1.9-1.2-3.1-1.2c-1.7,0-2.6,0.7-2.6,2.2c0,0.7,0.3,1.2,0.8,1.6c0.4,0.3,1.1,0.6,2.1,1c0.8,0.3,1.5,0.5,2,0.8
		c0.5,0.2,0.9,0.5,1.2,0.7c1,0.8,1.6,1.8,1.6,3.1C85.5,24.4,85,25.4,84.1,26.2z"/>
	<path class="st0" d="M91.6,14v13.1h-1.5V14h-2v-1.4h2V6.2h1.5v6.4h3.5V14H91.6z"/>
	<path class="st0" d="M99.4,19.5c0,2,0.5,3.5,1.6,4.7c1.1,1.2,2.7,1.8,4.7,1.8c1,0,1.9-0.2,2.7-0.5c1-0.4,2-1.3,2.8-2.6l1.3,0.6
		c-0.9,1.7-2.4,2.9-4.3,3.5c-0.7,0.2-1.6,0.4-2.5,0.4c-2.2,0-4.1-0.7-5.5-2.2C98.7,23.8,98,22,98,19.9c0-2.2,0.7-4,2.2-5.4
		c1.5-1.4,3.3-2.2,5.6-2.2c2.2,0,4,0.7,5.5,2c1.5,1.3,2.2,3.1,2.2,5.2H99.4z M109.6,14.9c-1.1-0.8-2.4-1.2-3.9-1.2
		c-3.1,0-5.1,1.5-6.1,4.5h12.1C111.5,16.8,110.8,15.7,109.6,14.9z"/>
	<path class="st0" d="M130.5,27.1v-2.6c-1.6,1.9-3.6,2.9-6.1,2.9c-2.2,0-4-0.7-5.5-2.2c-1.5-1.5-2.2-3.2-2.2-5.4
		c0-2.1,0.7-3.9,2.2-5.3c1.5-1.5,3.3-2.2,5.5-2.2c2.4,0,4.4,1,6.1,2.9V1h1.5v26.1H130.5z M128.8,15.6c-1.2-1.2-2.7-1.8-4.4-1.8
		c-1.7,0-3.2,0.6-4.4,1.8c-1.2,1.2-1.8,2.6-1.8,4.3c0,1.7,0.6,3.1,1.8,4.3c1.2,1.2,2.7,1.8,4.4,1.8c1.7,0,3.2-0.6,4.4-1.8
		c1.2-1.2,1.8-2.6,1.8-4.3C130.7,18.2,130.1,16.8,128.8,15.6z"/>
	<path class="st0" d="M136.6,27.3c-0.3,0-0.5-0.1-0.8-0.3c-0.2-0.2-0.3-0.5-0.4-0.8c0-0.6,0.4-1,1.2-1.2c0.6,0,1,0.4,1.2,1.2
		C137.7,27,137.3,27.3,136.6,27.3z"/>
	<path class="st0" d="M148.9,27.4c-2.2,0-4.1-0.7-5.5-2.2c-1.5-1.4-2.2-3.2-2.2-5.4s0.7-4,2.2-5.4c1.5-1.4,3.3-2.2,5.5-2.2
		c1.9,0,3.4,0.4,4.5,1.3v1.7l-0.9-0.6l-1-0.5c-0.9-0.3-1.8-0.5-2.6-0.5c-1.9,0-3.4,0.6-4.5,1.7c-1.2,1.2-1.8,2.6-1.8,4.5
		c0,1.8,0.6,3.3,1.8,4.4c1.2,1.2,2.7,1.7,4.5,1.7c1.7,0,3.2-0.6,4.5-1.7v1.8C152.1,27,150.6,27.4,148.9,27.4z"/>
	<path class="st0" d="M168.3,25.2c-1.5,1.5-3.3,2.2-5.5,2.2c-2.2,0-4-0.7-5.5-2.2c-1.5-1.5-2.2-3.2-2.2-5.4c0-2.1,0.7-3.9,2.2-5.3
		c1.5-1.5,3.3-2.2,5.5-2.2c2.1,0,4,0.7,5.5,2.2c1.5,1.5,2.2,3.2,2.2,5.4C170.5,22,169.7,23.8,168.3,25.2z M167.2,15.5
		c-1.2-1.2-2.7-1.8-4.4-1.8c-1.7,0-3.1,0.6-4.4,1.8c-1.3,1.2-1.9,2.7-1.9,4.3c0,1.7,0.6,3.1,1.8,4.3s2.7,1.8,4.4,1.8
		c1.7,0,3.2-0.6,4.4-1.8c1.2-1.2,1.8-2.6,1.8-4.3C169,18.1,168.4,16.7,167.2,15.5z"/>
	<path class="st0" d="M191.9,27.1V17.1c0-0.9-0.3-1.7-0.9-2.3c-0.6-0.7-1.5-1-2.6-1c-2.3,0-3.5,1.1-3.5,3.3v10.1h-1.5V17.1
		c0-1-0.3-1.8-1-2.4c-0.7-0.6-1.5-1-2.5-1c-1,0-1.8,0.3-2.5,0.9c-0.7,0.6-1,1.4-1,2.4v10.1h-1.5V12.5h1.5V14
		c0.7-1.1,1.9-1.7,3.5-1.7c1.9,0,3.3,0.8,4.3,2.3c0.9-1.5,2.3-2.3,4.2-2.3c1.5,0,2.7,0.4,3.6,1.2c0.9,0.8,1.4,2,1.4,3.5v10.1H191.9z
		"/>
</g>
<g>
	<path class="st0" d="M23,17.2h-5.5v5.5h-1.6v-5.5h-5.5v-1.5h5.5v-5.5h1.6v5.5H23V17.2z"/>
</g>
<g>
	<path class="st0" d="M192.9,12.1V8.7h-1.3V8.3h3.1v0.5h-1.3v3.4H192.9z"/>
	<path class="st0" d="M195.2,12.1V8.3h0.8l0.9,2.7c0.1,0.3,0.1,0.4,0.2,0.6c0-0.1,0.1-0.3,0.2-0.6l0.9-2.7h0.7v3.9h-0.5V8.9
		l-1.1,3.2h-0.5l-1.1-3.3v3.3H195.2z"/>
</g>
</svg>
